<svg width="175" height="44" viewBox="0 0 175 44" fill="none" xmlns="http://www.w3.org/2000/svg">
<path d="M69.568 9.152V26H65.464V15.896L61.696 26H58.384L54.592 15.872V26H50.488V9.152H55.336L60.064 20.816L64.744 9.152H69.568ZM83.0073 23.024H76.7193L75.7113 26H71.4153L77.5113 9.152H82.2633L88.3593 26H84.0153L83.0073 23.024ZM81.9513 19.856L79.8633 13.688L77.7993 19.856H81.9513ZM98.8066 26L95.3026 19.64H94.3186V26H90.2146V9.152H97.1026C98.4306 9.152 99.5586 9.384 100.487 9.848C101.431 10.312 102.135 10.952 102.599 11.768C103.063 12.568 103.295 13.464 103.295 14.456C103.295 15.576 102.975 16.576 102.335 17.456C101.711 18.336 100.783 18.96 99.5506 19.328L103.439 26H98.8066ZM94.3186 16.736H96.8626C97.6146 16.736 98.1746 16.552 98.5426 16.184C98.9266 15.816 99.1186 15.296 99.1186 14.624C99.1186 13.984 98.9266 13.48 98.5426 13.112C98.1746 12.744 97.6146 12.56 96.8626 12.56H94.3186V16.736ZM109.975 22.832H115.351V26H105.871V9.152H109.975V22.832ZM125.276 26.168C123.692 26.168 122.236 25.8 120.908 25.064C119.596 24.328 118.548 23.304 117.764 21.992C116.996 20.664 116.612 19.176 116.612 17.528C116.612 15.88 116.996 14.4 117.764 13.088C118.548 11.776 119.596 10.752 120.908 10.016C122.236 9.28 123.692 8.912 125.276 8.912C126.86 8.912 128.308 9.28 129.62 10.016C130.948 10.752 131.988 11.776 132.74 13.088C133.508 14.4 133.892 15.88 133.892 17.528C133.892 19.176 133.508 20.664 132.74 21.992C131.972 23.304 130.932 24.328 129.62 25.064C128.308 25.8 126.86 26.168 125.276 26.168ZM125.276 22.424C126.62 22.424 127.692 21.976 128.492 21.08C129.308 20.184 129.716 19 129.716 17.528C129.716 16.04 129.308 14.856 128.492 13.976C127.692 13.08 126.62 12.632 125.276 12.632C123.916 12.632 122.828 13.072 122.012 13.952C121.212 14.832 120.812 16.024 120.812 17.528C120.812 19.016 121.212 20.208 122.012 21.104C122.828 21.984 123.916 22.424 125.276 22.424ZM147.359 14.48C147.056 13.92 146.616 13.496 146.04 13.208C145.48 12.904 144.816 12.752 144.048 12.752C142.72 12.752 141.656 13.192 140.855 14.072C140.056 14.936 139.656 16.096 139.656 17.552C139.656 19.104 140.072 20.32 140.904 21.2C141.752 22.064 142.912 22.496 144.384 22.496C145.392 22.496 146.24 22.24 146.928 21.728C147.632 21.216 148.144 20.48 148.464 19.52H143.256V16.496H152.184V20.312C151.88 21.336 151.36 22.288 150.624 23.168C149.904 24.048 148.984 24.76 147.864 25.304C146.744 25.848 145.48 26.12 144.072 26.12C142.408 26.12 140.92 25.76 139.608 25.04C138.312 24.304 137.296 23.288 136.56 21.992C135.84 20.696 135.479 19.216 135.479 17.552C135.479 15.888 135.84 14.408 136.56 13.112C137.296 11.8 138.312 10.784 139.608 10.064C140.904 9.328 142.384 8.96 144.048 8.96C146.064 8.96 147.76 9.448 149.136 10.424C150.528 11.4 151.448 12.752 151.896 14.48H147.359Z" fill="#133475"/>
<g filter="url(#filter0_d_153_41)">
<path d="M2 9H48V17H10C5.58172 17 2 13.4183 2 9Z" fill="url(#paint0_linear_153_41)"/>
<path d="M10 18H48V26H18C13.5817 26 10 22.4183 10 18Z" fill="url(#paint1_linear_153_41)"/>
</g>
<path d="M94.938 28.172V30.09H92.334V38H89.94V30.09H87.336V28.172H94.938ZM98.5335 31.49C98.8135 31.0607 99.1635 30.7247 99.5835 30.482C100.003 30.23 100.47 30.104 100.983 30.104V32.638H100.325C99.7282 32.638 99.2802 32.7687 98.9815 33.03C98.6828 33.282 98.5335 33.73 98.5335 34.374V38H96.1395V30.188H98.5335V31.49ZM101.652 34.08C101.652 33.2773 101.801 32.5727 102.1 31.966C102.408 31.3593 102.823 30.8927 103.346 30.566C103.868 30.2393 104.452 30.076 105.096 30.076C105.646 30.076 106.127 30.188 106.538 30.412C106.958 30.636 107.28 30.93 107.504 31.294V30.188H109.898V38H107.504V36.894C107.27 37.258 106.944 37.552 106.524 37.776C106.113 38 105.632 38.112 105.082 38.112C104.447 38.112 103.868 37.9487 103.346 37.622C102.823 37.286 102.408 36.8147 102.1 36.208C101.801 35.592 101.652 34.8827 101.652 34.08ZM107.504 34.094C107.504 33.4967 107.336 33.0253 107 32.68C106.673 32.3347 106.272 32.162 105.796 32.162C105.32 32.162 104.914 32.3347 104.578 32.68C104.251 33.016 104.088 33.4827 104.088 34.08C104.088 34.6773 104.251 35.1533 104.578 35.508C104.914 35.8533 105.32 36.026 105.796 36.026C106.272 36.026 106.673 35.8533 107 35.508C107.336 35.1627 107.504 34.6913 107.504 34.094ZM116.39 30.104C117.304 30.104 118.032 30.4027 118.574 31C119.124 31.588 119.4 32.4 119.4 33.436V38H117.02V33.758C117.02 33.2353 116.884 32.8293 116.614 32.54C116.343 32.2507 115.979 32.106 115.522 32.106C115.064 32.106 114.7 32.2507 114.43 32.54C114.159 32.8293 114.024 33.2353 114.024 33.758V38H111.63V30.188H114.024V31.224C114.266 30.8787 114.593 30.608 115.004 30.412C115.414 30.2067 115.876 30.104 116.39 30.104ZM124.241 38.112C123.56 38.112 122.953 37.9953 122.421 37.762C121.889 37.5287 121.469 37.2113 121.161 36.81C120.853 36.3993 120.681 35.942 120.643 35.438H123.009C123.037 35.7087 123.163 35.928 123.387 36.096C123.611 36.264 123.887 36.348 124.213 36.348C124.512 36.348 124.741 36.292 124.899 36.18C125.067 36.0587 125.151 35.9047 125.151 35.718C125.151 35.494 125.035 35.3307 124.801 35.228C124.568 35.116 124.19 34.9947 123.667 34.864C123.107 34.7333 122.641 34.598 122.267 34.458C121.894 34.3087 121.572 34.08 121.301 33.772C121.031 33.4547 120.895 33.03 120.895 32.498C120.895 32.05 121.017 31.644 121.259 31.28C121.511 30.9067 121.875 30.6127 122.351 30.398C122.837 30.1833 123.411 30.076 124.073 30.076C125.053 30.076 125.823 30.3187 126.383 30.804C126.953 31.2893 127.279 31.9333 127.363 32.736H125.151C125.114 32.4653 124.993 32.2507 124.787 32.092C124.591 31.9333 124.33 31.854 124.003 31.854C123.723 31.854 123.509 31.91 123.359 32.022C123.21 32.1247 123.135 32.2693 123.135 32.456C123.135 32.68 123.252 32.848 123.485 32.96C123.728 33.072 124.101 33.184 124.605 33.296C125.184 33.4453 125.655 33.5947 126.019 33.744C126.383 33.884 126.701 34.1173 126.971 34.444C127.251 34.7613 127.396 35.1907 127.405 35.732C127.405 36.1893 127.275 36.6 127.013 36.964C126.761 37.3187 126.393 37.5987 125.907 37.804C125.431 38.0093 124.876 38.112 124.241 38.112ZM131.264 31.294C131.497 30.93 131.819 30.636 132.23 30.412C132.641 30.188 133.121 30.076 133.672 30.076C134.316 30.076 134.899 30.2393 135.422 30.566C135.945 30.8927 136.355 31.3593 136.654 31.966C136.962 32.5727 137.116 33.2773 137.116 34.08C137.116 34.8827 136.962 35.592 136.654 36.208C136.355 36.8147 135.945 37.286 135.422 37.622C134.899 37.9487 134.316 38.112 133.672 38.112C133.131 38.112 132.65 38 132.23 37.776C131.819 37.552 131.497 37.2627 131.264 36.908V41.724H128.87V30.188H131.264V31.294ZM134.68 34.08C134.68 33.4827 134.512 33.016 134.176 32.68C133.849 32.3347 133.443 32.162 132.958 32.162C132.482 32.162 132.076 32.3347 131.74 32.68C131.413 33.0253 131.25 33.4967 131.25 34.094C131.25 34.6913 131.413 35.1627 131.74 35.508C132.076 35.8533 132.482 36.026 132.958 36.026C133.434 36.026 133.84 35.8533 134.176 35.508C134.512 35.1533 134.68 34.6773 134.68 34.08ZM141.928 38.112C141.163 38.112 140.472 37.9487 139.856 37.622C139.249 37.2953 138.769 36.8287 138.414 36.222C138.069 35.6153 137.896 34.906 137.896 34.094C137.896 33.2913 138.073 32.5867 138.428 31.98C138.783 31.364 139.268 30.8927 139.884 30.566C140.5 30.2393 141.191 30.076 141.956 30.076C142.721 30.076 143.412 30.2393 144.028 30.566C144.644 30.8927 145.129 31.364 145.484 31.98C145.839 32.5867 146.016 33.2913 146.016 34.094C146.016 34.8967 145.834 35.606 145.47 36.222C145.115 36.8287 144.625 37.2953 144 37.622C143.384 37.9487 142.693 38.112 141.928 38.112ZM141.928 36.04C142.385 36.04 142.773 35.872 143.09 35.536C143.417 35.2 143.58 34.7193 143.58 34.094C143.58 33.4687 143.421 32.988 143.104 32.652C142.796 32.316 142.413 32.148 141.956 32.148C141.489 32.148 141.102 32.316 140.794 32.652C140.486 32.9787 140.332 33.4593 140.332 34.094C140.332 34.7193 140.481 35.2 140.78 35.536C141.088 35.872 141.471 36.04 141.928 36.04ZM149.68 31.49C149.96 31.0607 150.31 30.7247 150.73 30.482C151.15 30.23 151.617 30.104 152.13 30.104V32.638H151.472C150.875 32.638 150.427 32.7687 150.128 33.03C149.829 33.282 149.68 33.73 149.68 34.374V38H147.286V30.188H149.68V31.49ZM157.628 35.97V38H156.41C155.542 38 154.866 37.79 154.38 37.37C153.895 36.9407 153.652 36.2453 153.652 35.284V32.176H152.7V30.188H153.652V28.284H156.046V30.188H157.614V32.176H156.046V35.312C156.046 35.5453 156.102 35.7133 156.214 35.816C156.326 35.9187 156.513 35.97 156.774 35.97H157.628ZM166.326 33.968C166.326 34.192 166.312 34.4253 166.284 34.668H160.866C160.903 35.1533 161.057 35.5267 161.328 35.788C161.608 36.04 161.948 36.166 162.35 36.166C162.947 36.166 163.362 35.914 163.596 35.41H166.144C166.013 35.9233 165.775 36.3853 165.43 36.796C165.094 37.2067 164.669 37.5287 164.156 37.762C163.642 37.9953 163.068 38.112 162.434 38.112C161.668 38.112 160.987 37.9487 160.39 37.622C159.792 37.2953 159.326 36.8287 158.99 36.222C158.654 35.6153 158.486 34.906 158.486 34.094C158.486 33.282 158.649 32.5727 158.976 31.966C159.312 31.3593 159.778 30.8927 160.376 30.566C160.973 30.2393 161.659 30.076 162.434 30.076C163.19 30.076 163.862 30.2347 164.45 30.552C165.038 30.8693 165.495 31.322 165.822 31.91C166.158 32.498 166.326 33.184 166.326 33.968ZM163.876 33.338C163.876 32.9273 163.736 32.6007 163.456 32.358C163.176 32.1153 162.826 31.994 162.406 31.994C162.004 31.994 161.664 32.1107 161.384 32.344C161.113 32.5773 160.945 32.9087 160.88 33.338H163.876ZM170.767 38.112C170.085 38.112 169.479 37.9953 168.947 37.762C168.415 37.5287 167.995 37.2113 167.687 36.81C167.379 36.3993 167.206 35.942 167.169 35.438H169.535C169.563 35.7087 169.689 35.928 169.913 36.096C170.137 36.264 170.412 36.348 170.739 36.348C171.037 36.348 171.266 36.292 171.425 36.18C171.593 36.0587 171.677 35.9047 171.677 35.718C171.677 35.494 171.56 35.3307 171.327 35.228C171.093 35.116 170.715 34.9947 170.193 34.864C169.633 34.7333 169.166 34.598 168.793 34.458C168.419 34.3087 168.097 34.08 167.827 33.772C167.556 33.4547 167.421 33.03 167.421 32.498C167.421 32.05 167.542 31.644 167.785 31.28C168.037 30.9067 168.401 30.6127 168.877 30.398C169.362 30.1833 169.936 30.076 170.599 30.076C171.579 30.076 172.349 30.3187 172.909 30.804C173.478 31.2893 173.805 31.9333 173.889 32.736H171.677C171.639 32.4653 171.518 32.2507 171.313 32.092C171.117 31.9333 170.855 31.854 170.529 31.854C170.249 31.854 170.034 31.91 169.885 32.022C169.735 32.1247 169.661 32.2693 169.661 32.456C169.661 32.68 169.777 32.848 170.011 32.96C170.253 33.072 170.627 33.184 171.131 33.296C171.709 33.4453 172.181 33.5947 172.545 33.744C172.909 33.884 173.226 34.1173 173.497 34.444C173.777 34.7613 173.921 35.1907 173.931 35.732C173.931 36.1893 173.8 36.6 173.539 36.964C173.287 37.3187 172.918 37.5987 172.433 37.804C171.957 38.0093 171.401 38.112 170.767 38.112Z" fill="#133475"/>
<defs>
<filter id="filter0_d_153_41" x="0" y="9" width="50" height="21" filterUnits="userSpaceOnUse" color-interpolation-filters="sRGB">
<feFlood flood-opacity="0" result="BackgroundImageFix"/>
<feColorMatrix in="SourceAlpha" type="matrix" values="0 0 0 0 0 0 0 0 0 0 0 0 0 0 0 0 0 0 127 0" result="hardAlpha"/>
<feOffset dy="2"/>
<feGaussianBlur stdDeviation="1"/>
<feComposite in2="hardAlpha" operator="out"/>
<feColorMatrix type="matrix" values="0 0 0 0 0 0 0 0 0 0 0 0 0 0 0 0 0 0 0.25 0"/>
<feBlend mode="normal" in2="BackgroundImageFix" result="effect1_dropShadow_153_41"/>
<feBlend mode="normal" in="SourceGraphic" in2="effect1_dropShadow_153_41" result="shape"/>
</filter>
<linearGradient id="paint0_linear_153_41" x1="2" y1="13" x2="48" y2="13" gradientUnits="userSpaceOnUse">
<stop offset="0.495" stop-color="#2462DB"/>
<stop offset="1" stop-color="#133475"/>
</linearGradient>
<linearGradient id="paint1_linear_153_41" x1="10" y1="22" x2="48" y2="22" gradientUnits="userSpaceOnUse">
<stop offset="0.495" stop-color="#2462DB"/>
<stop offset="1" stop-color="#133475"/>
</linearGradient>
</defs>
</svg>
