<svg width="180" height="30" viewBox="0 0 180 30" fill="none" xmlns="http://www.w3.org/2000/svg">
<path d="M53.68 23V6.2H57.592L64.552 17.624H62.488L69.256 6.2H73.168L73.216 23H68.848L68.8 12.848H69.544L64.48 21.344H62.368L57.16 12.848H58.072V23H53.68ZM74.5624 23L81.9784 6.2H86.6584L94.0984 23H89.1544L83.3464 8.528H85.2184L79.4104 23H74.5624ZM78.6184 19.736L79.8424 16.232H88.0504L89.2744 19.736H78.6184ZM95.4456 23V6.2H103.126C104.662 6.2 105.982 6.448 107.086 6.944C108.206 7.44 109.07 8.16 109.678 9.104C110.286 10.032 110.59 11.136 110.59 12.416C110.59 13.68 110.286 14.776 109.678 15.704C109.07 16.616 108.206 17.32 107.086 17.816C105.982 18.296 104.662 18.536 103.126 18.536H98.0856L100.198 16.544V23H95.4456ZM105.838 23L101.662 16.88H106.726L110.926 23H105.838ZM100.198 17.048L98.0856 14.864H102.838C103.83 14.864 104.566 14.648 105.046 14.216C105.542 13.784 105.79 13.184 105.79 12.416C105.79 11.632 105.542 11.024 105.046 10.592C104.566 10.16 103.83 9.944 102.838 9.944H98.0856L100.198 7.76V17.048ZM113.211 23V6.2H117.963V19.232H125.979V23H113.211ZM136.074 23.336C134.73 23.336 133.49 23.12 132.354 22.688C131.218 22.256 130.226 21.648 129.378 20.864C128.546 20.064 127.898 19.136 127.434 18.08C126.97 17.024 126.738 15.864 126.738 14.6C126.738 13.336 126.97 12.176 127.434 11.12C127.898 10.064 128.546 9.144 129.378 8.36C130.226 7.56 131.218 6.944 132.354 6.512C133.49 6.08 134.73 5.864 136.074 5.864C137.434 5.864 138.674 6.08 139.794 6.512C140.93 6.944 141.914 7.56 142.746 8.36C143.578 9.144 144.226 10.064 144.69 11.12C145.17 12.176 145.41 13.336 145.41 14.6C145.41 15.864 145.17 17.032 144.69 18.104C144.226 19.16 143.578 20.08 142.746 20.864C141.914 21.648 140.93 22.256 139.794 22.688C138.674 23.12 137.434 23.336 136.074 23.336ZM136.074 19.4C136.714 19.4 137.306 19.288 137.85 19.064C138.41 18.84 138.89 18.52 139.29 18.104C139.706 17.672 140.026 17.16 140.25 16.568C140.49 15.976 140.61 15.32 140.61 14.6C140.61 13.864 140.49 13.208 140.25 12.632C140.026 12.04 139.706 11.536 139.29 11.12C138.89 10.688 138.41 10.36 137.85 10.136C137.306 9.912 136.714 9.8 136.074 9.8C135.434 9.8 134.834 9.912 134.274 10.136C133.73 10.36 133.25 10.688 132.834 11.12C132.434 11.536 132.114 12.04 131.874 12.632C131.65 13.208 131.538 13.864 131.538 14.6C131.538 15.32 131.65 15.976 131.874 16.568C132.114 17.16 132.434 17.672 132.834 18.104C133.25 18.52 133.73 18.84 134.274 19.064C134.834 19.288 135.434 19.4 136.074 19.4ZM156.299 23.336C154.971 23.336 153.739 23.128 152.603 22.712C151.467 22.28 150.483 21.672 149.651 20.888C148.835 20.104 148.195 19.184 147.731 18.128C147.267 17.056 147.035 15.88 147.035 14.6C147.035 13.32 147.267 12.152 147.731 11.096C148.195 10.024 148.843 9.096 149.675 8.312C150.507 7.528 151.491 6.928 152.627 6.512C153.779 6.08 155.035 5.864 156.395 5.864C157.979 5.864 159.395 6.128 160.643 6.656C161.891 7.184 162.923 7.944 163.739 8.936L160.715 11.672C160.139 11.048 159.515 10.584 158.843 10.28C158.187 9.96 157.451 9.8 156.635 9.8C155.915 9.8 155.259 9.912 154.667 10.136C154.075 10.36 153.571 10.688 153.155 11.12C152.739 11.536 152.411 12.04 152.171 12.632C151.947 13.208 151.835 13.864 151.835 14.6C151.835 15.304 151.947 15.952 152.171 16.544C152.411 17.136 152.739 17.648 153.155 18.08C153.571 18.496 154.067 18.824 154.643 19.064C155.235 19.288 155.883 19.4 156.587 19.4C157.291 19.4 157.979 19.288 158.651 19.064C159.323 18.824 160.003 18.424 160.691 17.864L163.355 21.2C162.395 21.888 161.283 22.416 160.019 22.784C158.755 23.152 157.515 23.336 156.299 23.336ZM159.155 20.576V14.24H163.355V21.2L159.155 20.576Z" fill="white"/>
<g filter="url(#filter0_d_149_27)">
<path d="M2 7H48V15H10C5.58172 15 2 11.4183 2 7Z" fill="white"/>
<path d="M10 16H48V24H18C13.5817 24 10 20.4183 10 16Z" fill="white"/>
</g>
<defs>
<filter id="filter0_d_149_27" x="0" y="7" width="50" height="21" filterUnits="userSpaceOnUse" color-interpolation-filters="sRGB">
<feFlood flood-opacity="0" result="BackgroundImageFix"/>
<feColorMatrix in="SourceAlpha" type="matrix" values="0 0 0 0 0 0 0 0 0 0 0 0 0 0 0 0 0 0 127 0" result="hardAlpha"/>
<feOffset dy="2"/>
<feGaussianBlur stdDeviation="1"/>
<feComposite in2="hardAlpha" operator="out"/>
<feColorMatrix type="matrix" values="0 0 0 0 0 0 0 0 0 0 0 0 0 0 0 0 0 0 0.25 0"/>
<feBlend mode="normal" in2="BackgroundImageFix" result="effect1_dropShadow_149_27"/>
<feBlend mode="normal" in="SourceGraphic" in2="effect1_dropShadow_149_27" result="shape"/>
</filter>
</defs>
</svg>
