
<svg width="40" height="45" viewBox="0 0 40 45" fill="none" xmlns="http://www.w3.org/2000/svg">
<path d="M17.7778 39.2062V23.7937L4.44444 15.975V31.3875L17.7778 39.2062ZM22.2222 39.2062L35.5556 31.3875V15.975L22.2222 23.7937V39.2062ZM17.7778 44.3812L2.22222 35.325C1.51852 34.9125 0.972222 34.3687 0.583333 33.6937C0.194444 33.0187 0 32.2687 0 31.4437V13.5562C0 12.7312 0.194444 11.9812 0.583333 11.3062C0.972222 10.6312 1.51852 10.0875 2.22222 9.675L17.7778 0.61875C18.4815 0.20625 19.2222 0 20 0C20.7778 0 21.5185 0.20625 22.2222 0.61875L37.7778 9.675C38.4815 10.0875 39.0278 10.6312 39.4167 11.3062C39.8056 11.9812 40 12.7312 40 13.5562V31.4437C40 32.2687 39.8056 33.0187 39.4167 33.6937C39.0278 34.3687 38.4815 34.9125 37.7778 35.325L22.2222 44.3812C21.5185 44.7937 20.7778 45 20 45C19.2222 45 18.4815 44.7937 17.7778 44.3812ZM28.8889 14.6812L33.1667 12.2062L20 4.5L15.6667 7.03125L28.8889 14.6812ZM20 19.9125L24.3333 17.3813L11.1667 9.675L6.83333 12.2062L20 19.9125Z" fill="#2462DB" fill-opacity="0.8"/>
</svg>
